<svg width="24" height="20" viewBox="0 0 24 20" fill="none" xmlns="http://www.w3.org/2000/svg">
<path d="M1 3.64697L8.31967 7.79435C11.0182 9.32333 12.1583 9.32333 14.8568 7.79435L22.1765 3.64697" stroke="#AAAAAA" stroke-width="2" stroke-linejoin="round"/>
<path d="M1.0167 11.5624C1.08591 14.8083 1.12053 16.4312 2.31819 17.6335C3.51585 18.8357 5.1827 18.8775 8.51641 18.9612C10.571 19.0129 12.6054 19.0129 14.6601 18.9612C17.9938 18.8775 19.6606 18.8357 20.8583 17.6335C22.056 16.4312 22.0906 14.8083 22.1597 11.5624C22.1821 10.5187 22.1821 9.48128 22.1597 8.4376C22.0906 5.19173 22.056 3.5688 20.8583 2.36658C19.6606 1.16436 17.9938 1.12249 14.6601 1.03872C12.6054 0.987094 10.571 0.987094 8.5164 1.03871C5.1827 1.12246 3.51585 1.16434 2.31818 2.36657C1.12052 3.56879 1.08591 5.19172 1.01669 8.4376C0.994431 9.48128 0.994441 10.5187 1.0167 11.5624Z" stroke="#AAAAAA" stroke-width="2" stroke-linejoin="round"/>
</svg>
