<?xml version="1.0" encoding="UTF-8"?>
<svg version="1.1" xmlns="http://www.w3.org/2000/svg" width="512" height="512">
<path d="M0 0 C1.010625 -0.00773438 2.02125 -0.01546875 3.0625 -0.0234375 C7.70496206 0.60625815 10.84970467 2.75904738 13.75 6.375 C16.69186219 10.29748292 17.12484129 12.81681488 17.11352539 17.58081055 C17.11344986 18.64168381 17.11337433 19.70255707 17.11329651 20.795578 C17.10813522 21.93940445 17.10297394 23.0832309 17.09765625 24.26171875 C17.09553383 26.01993706 17.09553383 26.01993706 17.09336853 27.81367493 C17.08776388 31.56330907 17.07521056 35.31288385 17.0625 39.0625 C17.0574856 41.60221268 17.05292259 44.1419263 17.04882812 46.68164062 C17.03779294 52.91278073 17.02105025 59.14388612 17 65.375 C17.74661392 65.43916611 18.49322784 65.50333221 19.26246643 65.56944275 C20.24649948 65.65601639 21.23053253 65.74259003 22.24438477 65.83178711 C23.70461815 65.95897377 23.70461815 65.95897377 25.1943512 66.08872986 C49.69261475 68.58837321 75.16308959 80.86371014 94 96.375 C94.84473877 97.06166748 94.84473877 97.06166748 95.70654297 97.76220703 C121.78158251 119.04200056 139.77564627 147.12316131 147.875 179.875 C148.06610352 180.63127686 148.25720703 181.38755371 148.45410156 182.16674805 C151.90004605 197.30920374 152.26746814 212.93755329 151.99930763 228.39129829 C151.92492673 233.20783509 151.91703517 238.02478397 151.89648438 242.84179688 C151.86697879 248.90063318 151.81856527 254.9575344 151.7019043 261.01538086 C150.03132129 290.08958739 150.03132129 290.08958739 162.65478516 315.03637695 C163.21483246 315.58365448 163.77487976 316.13093201 164.35189819 316.6947937 C167.12351892 319.52040471 169.29532748 322.76796713 171.5625 326 C172.45769599 327.21593481 173.35574143 328.42978186 174.2578125 329.640625 C178.77215421 335.75724926 183.11518388 341.99683047 187.48388672 348.21777344 C189.48625279 351.06687273 191.49458364 353.91173506 193.50366211 356.75610352 C194.49860376 358.16499544 195.49291072 359.57433581 196.48657227 360.98413086 C199.0504846 364.62099618 201.62330017 368.2510627 204.2109375 371.87109375 C222.13437263 396.98528605 222.13437263 396.98528605 220.59375 412.12890625 C218.9648009 421.03454243 214.05993439 427.84286991 207 433.375 C198.21728971 438.86244856 189.57694262 440.66819896 179.37109375 440.69384766 C178.44333633 440.70389328 177.51557892 440.7139389 176.55970764 440.72428894 C173.51897758 440.75497098 170.47833495 440.77211425 167.4375 440.7890625 C165.31900284 440.8077862 163.20051305 440.8273605 161.08203125 440.8477478 C155.52549593 440.89894791 149.96893647 440.93863842 144.41229248 440.97589111 C138.73443691 441.01600689 133.05668074 441.06706462 127.37890625 441.1171875 C116.25267411 441.21380322 105.1263857 441.29825378 94 441.375 C93.73662842 442.38675293 93.47325684 443.39850586 93.2019043 444.44091797 C92.84698318 445.79137814 92.49191341 447.14179925 92.13671875 448.4921875 C91.87804016 449.48835083 91.87804016 449.48835083 91.61413574 450.50463867 C86.33610676 470.50107367 73.90800239 487.77631797 56.375 498.875 C33.46217234 511.93668379 5.67270057 517.19521268 -20.24023438 510.28149414 C-32.55989449 506.59023919 -43.6746147 501.06344075 -54 493.375 C-54.65226563 492.89546875 -55.30453125 492.4159375 -55.9765625 491.921875 C-71.58706607 479.51900915 -80.24191918 460.53712167 -84 441.375 C-85.17604797 441.37135437 -86.35209595 441.36770874 -87.56378174 441.36395264 C-98.68561258 441.32689687 -109.80716925 441.26900895 -120.92879105 441.19109726 C-126.64557233 441.15170821 -132.36220155 441.1194777 -138.07910156 441.10400391 C-143.60360294 441.08878088 -149.12768602 441.05423529 -154.65200043 441.00669098 C-156.75210672 440.99193528 -158.85227276 440.98396235 -160.95243073 440.98311615 C-176.87834807 440.97025401 -190.07420509 440.2007365 -201.9375 428.45703125 C-209.17682098 420.65967928 -211.17646376 412.92501215 -211 402.375 C-209.21036039 389.33347733 -199.03383181 378.56284485 -191.52734375 368.25390625 C-187.956692 363.33669936 -184.47229501 358.36195071 -181 353.375 C-175.97435366 346.1619823 -170.88286438 339.00223726 -165.70117188 331.90039062 C-164.7226361 330.55539125 -163.75981988 329.1988104 -162.81330872 327.83108521 C-161 325.375 -161 325.375 -158.75065613 322.93173218 C-149.91880621 312.42339401 -150.80162964 301.66759327 -151.0078125 288.47265625 C-151.00978206 286.14497338 -151.00732902 283.81728303 -151.0007019 281.48960876 C-150.99310371 275.38033114 -151.03635022 269.27255134 -151.09332275 263.16357422 C-151.17613717 253.42242917 -151.18268478 243.68101139 -151.18636703 233.93957329 C-151.19504754 230.57534379 -151.22633392 227.21195871 -151.26150513 223.84791565 C-151.56582159 178.32475488 -136.85160089 139.05630974 -105 106.375 C-97.67799774 99.0287125 -89.43328113 93.23733708 -80.79931641 87.55859375 C-79.3309311 86.5926871 -77.87288153 85.61108309 -76.41796875 84.625 C-59.7182759 73.8623258 -36.02134379 65.23614998 -16 65.375 C-16.01110306 64.71624878 -16.02220612 64.05749756 -16.03364563 63.37878418 C-16.14456967 56.50038255 -16.21980467 49.62223649 -16.2746582 42.74316406 C-16.29974698 40.17860589 -16.33382586 37.61411883 -16.37719727 35.04980469 C-16.438093 31.35594093 -16.46626764 27.66302549 -16.48828125 23.96875 C-16.51408768 22.8288562 -16.5398941 21.6889624 -16.56648254 20.51452637 C-16.56892484 13.52681444 -15.68747595 8.72445169 -11 3.375 C-7.37886192 0.43862842 -4.61167367 -0.03529342 0 0 Z M-75 124.375 C-75.99515625 125.20644531 -76.9903125 126.03789063 -78.015625 126.89453125 C-101.54602415 147.19637579 -115.51976873 176.52266616 -118 207.375 C-118.13603602 211.16205252 -118.14380781 214.94539346 -118.1418457 218.73461914 C-118.14532013 219.83499008 -118.14879456 220.93536102 -118.15237427 222.06907654 C-118.15969185 224.44417383 -118.16505837 226.81927779 -118.16866493 229.19438362 C-118.17587079 232.95691001 -118.19156578 236.71930903 -118.21000671 240.48179626 C-118.26229958 251.17446235 -118.31091221 261.86702815 -118.32592773 272.55981445 C-118.33522338 279.11256909 -118.36534307 285.66505244 -118.40724754 292.21767998 C-118.41954445 294.70906536 -118.42468121 297.20049697 -118.42244911 299.6919117 C-118.42009402 303.17655547 -118.44227715 306.66025883 -118.4699707 310.14477539 C-118.46006859 311.67939926 -118.46006859 311.67939926 -118.44996643 313.24502563 C-118.55640912 321.41716764 -120.98683428 326.97988051 -125.8125 333.49609375 C-126.32425781 334.19476563 -126.83601563 334.8934375 -127.36328125 335.61328125 C-127.90339844 336.33902344 -128.44351563 337.06476563 -129 337.8125 C-130.16751488 339.40432615 -131.33416195 340.9967891 -132.5 342.58984375 C-133.08652344 343.38890137 -133.67304688 344.18795898 -134.27734375 345.01123047 C-136.89452684 348.6024389 -139.44849069 352.23698114 -142 355.875 C-146.09530748 361.70431401 -150.24877233 367.48752006 -154.4375 373.25 C-159.09328794 379.66631495 -163.64629784 386.1463123 -168.125 392.6875 C-168.94182251 393.87931885 -168.94182251 393.87931885 -169.77514648 395.09521484 C-172.29593803 398.7953497 -174.75562146 402.49764259 -177 406.375 C-174.28842277 407.73078861 -172.17474115 407.50167458 -169.13723755 407.50363445 C-167.25208089 407.50847112 -167.25208089 407.50847112 -165.32884026 407.5134055 C-163.92121241 407.51193414 -162.51358467 407.5103664 -161.10595703 407.50871277 C-159.62072758 407.51057941 -158.13549863 407.51287953 -156.65027046 407.51557809 C-152.55407823 407.52172052 -148.45790634 407.52155964 -144.36171055 407.52038372 C-139.9499384 407.52018033 -135.53817289 407.5256925 -131.12640381 407.53044128 C-122.47786274 407.53876148 -113.82932848 407.54149673 -105.18078375 407.54205366 C-98.15472154 407.54252812 -91.12866159 407.54457935 -84.1026001 407.54775429 C-64.20303635 407.55656416 -44.30347801 407.56117308 -24.40391231 407.56042381 C-23.33025015 407.56038386 -22.256588 407.5603439 -21.15039062 407.56030273 C-19.53794208 407.56024141 -19.53794208 407.56024141 -17.89291883 407.56017885 C-0.46063251 407.55977216 16.97163223 407.56934666 34.40391231 407.5834411 C52.28304302 407.59778334 70.1621632 407.60471249 88.04129982 407.60384732 C98.0872552 407.60351464 108.13318796 407.60629312 118.17913818 407.61702538 C126.730485 407.62610206 135.28179894 407.62832903 143.83314848 407.62151595 C148.19990776 407.6182365 152.56660385 407.61824502 156.93335724 407.6268692 C160.92540006 407.63467261 164.91732893 407.63336665 168.90936875 407.62458507 C170.3588644 407.62303638 171.80836829 407.62491704 173.25785422 407.63044515 C175.21763744 407.63742846 177.17745501 407.63106024 179.13723755 407.62388897 C180.774864 407.62421502 180.774864 407.62421502 182.44557381 407.62454766 C185.16669586 407.63164077 185.16669586 407.63164077 187 405.375 C180.2372469 395.65708142 173.45721101 385.95503325 166.5 376.375 C161.32958787 369.25475243 156.26734987 362.06449094 151.23706055 354.84472656 C147.31795963 349.22998129 143.33720135 343.66443841 139.3125 338.125 C135.08112223 332.29390007 130.90539229 326.42928066 126.8125 320.5 C126.35464111 319.83967773 125.89678223 319.17935547 125.42504883 318.49902344 C119.75582407 310.23676337 119.75582407 310.23676337 119.73498535 305.29464722 C119.72671219 304.49057434 119.71843903 303.68650146 119.70991516 302.85806274 C119.71089706 301.98435028 119.71187897 301.11063782 119.71289062 300.21044922 C119.70605759 299.28292847 119.69922455 298.35540771 119.69218445 297.39978027 C119.67859495 295.38422951 119.66954263 293.36864425 119.66447449 291.35305405 C119.65616476 288.14679887 119.63563222 284.94082574 119.61193848 281.73464966 C119.56369143 274.90647537 119.53086292 268.07827199 119.5 261.25 C119.46414703 253.38020379 119.42174514 245.51054182 119.36405945 237.64087296 C119.34426864 234.51169153 119.33572285 231.38261781 119.32775879 228.25338745 C119.24671974 212.95694754 118.83987996 197.50023837 114.375 182.75 C113.9891272 181.44216553 113.9891272 181.44216553 113.59545898 180.10791016 C110.9908649 171.68667159 107.36037924 164.01450825 103 156.375 C102.46890625 155.41722656 101.9378125 154.45945313 101.390625 153.47265625 C85.44601815 126.59573232 58.36608779 108.0056085 28.40234375 100.15234375 C-8.03984983 91.82628574 -46.24548573 100.34671114 -75 124.375 Z M-50 440.375 C-44.39170867 455.79780115 -37.3451458 466.94930468 -22.29931641 474.12011719 C-6.09779103 481.41668794 11.08204988 482.1994627 27.875 476.125 C43.21698101 469.67311557 52.64648548 459.55914333 59 444.375 C59.33 443.055 59.66 441.735 60 440.375 C23.7 440.375 -12.6 440.375 -50 440.375 Z " fill="#000000" transform="translate(251,-0.375)"/>
</svg>
