<svg width="18" height="18" viewBox="0 0 18 18" fill="none" xmlns="http://www.w3.org/2000/svg">
<path d="M13.1544 14.916C12.6679 14.4295 12.6679 13.6408 13.1544 13.1544C13.6408 12.6679 14.4295 12.6679 14.916 13.1544L16.6352 14.8736C17.1217 15.3601 17.1217 16.1488 16.6352 16.6352C16.1488 17.1217 15.3601 17.1217 14.8736 16.6352L13.1544 14.916Z" stroke="#AAAAAA" stroke-width="2" stroke-linecap="round" stroke-linejoin="round"/>
<path d="M11.5264 11.5264L12.7895 12.7895" stroke="#AAAAAA" stroke-width="2" stroke-linecap="round" stroke-linejoin="round"/>
<path d="M12.7895 6.89475C12.7895 3.63917 10.1503 1 6.89474 1C3.63917 1 1 3.63917 1 6.89475C1 10.1503 3.63917 12.7895 6.89474 12.7895C10.1503 12.7895 12.7895 10.1503 12.7895 6.89475Z" stroke="#AAAAAA" stroke-width="2" stroke-linecap="round" stroke-linejoin="round"/>
</svg>
